<svg width="320" height="132" viewBox="0 0 320 132" fill="none" xmlns="http://www.w3.org/2000/svg">
<path d="M214.595 113.665V17.126H232.086V113.665H214.595Z" fill="#586FD5"/>
<path d="M172.176 113.664V22.333H189.668V113.664H172.176ZM157.088 64.5269V49.1715H204.756V64.5269H157.088Z" fill="#586FD5"/>
<path d="M122.866 115C116.101 115 110.092 113.575 104.84 110.727C99.5882 107.789 95.4045 103.784 92.2889 98.7097C89.2623 93.6357 87.749 87.8497 87.749 81.3514C87.749 74.9422 89.2178 69.2452 92.1553 64.2602C95.1819 59.1863 99.2767 55.1805 104.44 52.243C109.603 49.2164 115.344 47.7031 121.664 47.7031C127.896 47.7031 133.37 49.1274 138.088 51.9759C142.895 54.7354 146.634 58.5632 149.304 63.4591C152.064 68.266 153.443 73.7405 153.443 79.8827C153.443 81.0399 153.354 82.2416 153.176 83.4878C153.087 84.6451 152.865 85.9803 152.509 87.4936L98.2975 87.6271V74.5417L144.364 74.4081L137.287 79.8827C137.109 76.0549 136.397 72.8503 135.15 70.2689C133.993 67.6874 132.257 65.729 129.943 64.3938C127.718 62.9695 124.958 62.2574 121.664 62.2574C118.193 62.2574 115.166 63.0585 112.585 64.6608C110.003 66.1741 108 68.355 106.576 71.2035C105.241 73.9631 104.573 77.2567 104.573 81.0844C104.573 85.0011 105.285 88.4283 106.71 91.3658C108.223 94.2144 110.359 96.4398 113.119 98.0421C115.878 99.5554 119.083 100.312 122.733 100.312C126.026 100.312 129.008 99.7779 131.679 98.7097C134.349 97.5525 136.664 95.8612 138.622 93.6357L148.903 103.917C145.788 107.567 141.96 110.326 137.42 112.196C132.97 114.065 128.118 115 122.866 115Z" fill="#586FD5"/>
<path d="M27.9633 78.815V63.9937H49.7279C52.5764 63.9937 55.1579 63.4151 57.4723 62.2579C59.7868 61.1006 61.6116 59.4538 62.9469 57.3174C64.2821 55.092 64.9497 52.4215 64.9497 49.3059C64.9497 46.2794 64.2821 43.6534 62.9469 41.4279C61.6116 39.2025 59.7868 37.5112 57.4723 36.354C55.1579 35.1968 52.5764 34.6182 49.7279 34.6182L14.2754 34.6182V19.7969L51.5972 19.7969C57.5614 19.7969 62.9023 20.9986 67.6202 23.4021C72.4271 25.8055 76.2103 29.2326 78.9699 33.6835C81.7294 38.0453 83.1091 43.2528 83.1091 49.3059C83.1091 55.3591 81.7294 60.611 78.9699 65.0619C76.2103 69.4237 72.4271 72.8063 67.6202 75.2098C62.9023 77.6132 57.5614 78.815 51.5972 78.815H27.9633ZM14.2756 113.665V63.9937H32.7702V113.665H14.2756Z" fill="#586FD5"/>
<path d="M8.71191 57.4619L47.6112 57.4619C51.4771 57.4619 54.6112 54.3279 54.6112 50.4619L54.6112 49.1622C54.6112 45.2962 51.4772 42.1622 47.6112 42.1622L8.71191 42.1622L8.71191 57.4619Z" fill="#81FBCC"/>
<path d="M274.558 115C268.683 115 263.386 113.531 258.668 110.594C253.951 107.656 250.256 103.65 247.586 98.5764C244.915 93.5025 243.58 87.8054 243.58 81.4852C243.58 75.076 244.915 69.3345 247.586 64.2605C250.256 59.1865 253.951 55.1808 258.668 52.2432C263.386 49.3057 268.683 47.8369 274.558 47.8369C279.187 47.8369 283.326 48.7716 286.976 50.6409C290.625 52.5103 293.518 55.1363 295.655 58.5189C297.88 61.8125 299.082 65.5512 299.26 69.735V92.9684C299.082 97.2412 297.88 101.024 295.655 104.318C293.518 107.612 290.625 110.238 286.976 112.196C283.326 114.065 279.187 115 274.558 115ZM277.762 98.8435C282.658 98.8435 286.62 97.2412 289.646 94.0366C292.673 90.743 294.186 86.5147 294.186 81.3517C294.186 77.9691 293.474 74.987 292.05 72.4055C290.714 69.735 288.801 67.6876 286.308 66.2634C283.905 64.7501 281.056 63.9934 277.762 63.9934C274.558 63.9934 271.709 64.7501 269.217 66.2634C266.813 67.6876 264.9 69.735 263.475 72.4055C262.14 74.987 261.472 77.9691 261.472 81.3517C261.472 84.8234 262.14 87.8944 263.475 90.5649C264.9 93.1464 266.813 95.1938 269.217 96.7071C271.709 98.1314 274.558 98.8435 277.762 98.8435ZM293.251 113.665V96.3065L296.055 80.5506L293.251 65.0617V49.1722H310.61V113.665H293.251Z" fill="#586FD5"/>
</svg>
